<svg xmlns="http://www.w3.org/2000/svg" version="1.1" xmlns:xlink="http://www.w3.org/1999/xlink" xmlns:svgjs="http://svgjs.dev/svgjs" width="1000" height="148" viewBox="0 0 1000 148"><g transform="matrix(1,0,0,1,-0.6060606060606233,0.519322669273663)"><svg viewBox="0 0 396 59" data-background-color="#ffffff" preserveAspectRatio="xMidYMid meet" height="148" width="1000" xmlns="http://www.w3.org/2000/svg" xmlns:xlink="http://www.w3.org/1999/xlink"><g id="tight-bounds" transform="matrix(1,0,0,1,0.2400000000000091,-0.207027280318556)"><svg viewBox="0 0 395.52 59.4140545606371" height="59.4140545606371" width="395.52"><g><svg viewBox="0 0 521.6739909097021 78.36460092732186" height="59.4140545606371" width="395.52"><g transform="matrix(1,0,0,1,0,10.830418796757218)"><svg viewBox="0 0 395.52 56.70376333380742" height="56.70376333380742" width="395.52"><g id="textblocktransform"><svg viewBox="0 0 395.52 56.70376333380742" height="56.70376333380742" width="395.52" id="textblock"><g><svg viewBox="0 0 395.52 56.70376333380742" height="56.70376333380742" width="395.52"><g transform="matrix(1,0,0,1,0,0)"><svg width="395.52" viewBox="3.85 -38 351.51 50.4" height="56.70376333380742" data-palette-color="#4790fc"><path d="M5.1-6.55L5.1-6.55 5.1-32.75Q5.1-34.15 3.85-34.7L3.85-34.7Q4.85-36.25 6.5-36.25L6.5-36.25Q9.3-36.25 9.3-32.8L9.3-32.8 9.3-6.65Q9.3-4.85 10.13-4.05 10.95-3.25 12.85-3.25L12.85-3.25 21.05-3.25Q23.8-3.25 25.1-5.35L25.1-5.35Q26.55-4.85 26.55-3.35L26.55-3.35Q26.55 0 21.05 0L21.05 0 12.6 0Q8.7 0 6.9-1.5 5.1-3 5.1-6.55ZM36-6.4L36-6.4Q36-2.8 39.92-2.8 43.85-2.8 46.4-6.25L46.4-6.25 46.4-12.2Q41.1-11.9 38.55-10.33 36-8.75 36-6.4ZM50.55-17.8L50.55-17.8 50.55-4.5Q50.55-1.85 53-1.5L53-1.5Q52.05 0.45 49.85 0.45L49.85 0.45Q46.7 0.45 46.4-3.6L46.4-3.6Q43.5 0.45 38.6 0.45L38.6 0.45Q35.5 0.45 33.5-1.25 31.5-2.95 31.5-5.95L31.5-5.95Q31.5-9.65 35.22-11.93 38.95-14.2 46.4-14.4L46.4-14.4 46.4-17.4Q46.4-20.5 45.3-21.98 44.2-23.45 41.82-23.45 39.45-23.45 38.25-22.48 37.05-21.5 37.05-20.28 37.05-19.05 37.75-18.3L37.75-18.3Q36.7-17.5 35.42-17.5 34.15-17.5 33.35-18.2 32.55-18.9 32.55-20.2L32.55-20.2Q32.55-22.55 35.25-24.2 37.95-25.85 41.9-25.85 45.85-25.85 48.2-23.73 50.55-21.6 50.55-17.8ZM80.45-17.25L80.45-17.25 80.45-3.1Q80.45-1.7 81.75-1.15L81.75-1.15Q80.7 0.45 79.09 0.45L79.09 0.45Q76.34 0.45 76.34-3.05L76.34-3.05 76.34-16.95Q76.34-22.2 71.75-22.2L71.75-22.2Q69.25-22.2 67-20.2 64.75-18.2 63.9-14.85L63.9-14.85 63.9-3.1Q63.9-1.65 65.15-1.15L65.15-1.15Q64.09 0.45 62.55 0.45L62.55 0.45Q59.75 0.45 59.75-3.05L59.75-3.05 59.75-22.25Q59.75-23.7 58.5-24.25L58.5-24.25Q59.45-25.85 61.1-25.85L61.1-25.85Q63.9-25.85 63.9-22.35L63.9-22.35 63.9-19.75Q65.2-22.45 67.59-24.15 70-25.85 73.22-25.85 76.45-25.85 78.45-23.68 80.45-21.5 80.45-17.25ZM104.89-8.5L104.89-20.65Q102.64-22.75 99.42-22.75 96.19-22.75 93.92-19.98 91.64-17.2 91.64-12.4 91.64-7.6 93.62-5.2 95.59-2.8 98.59-2.8L98.59-2.8Q103.64-2.8 104.89-8.5L104.89-8.5ZM109.09-34.55L109.09-34.55 109.09-3.1Q109.09-1.65 110.34-1.15L110.34-1.15Q109.29 0.45 107.69 0.45L107.69 0.45Q104.89 0.45 104.89-3.05L104.89-3.05 104.89-3.85Q102.64 0.45 97.69 0.45L97.69 0.45Q93.49 0.45 90.34-2.93 87.19-6.3 87.19-12.28 87.19-18.25 90.59-22.05 93.99-25.85 98.79-25.85L98.79-25.85Q102.19-25.85 104.89-24.15L104.89-24.15 104.89-34.45Q104.89-35.95 103.64-36.45L103.64-36.45Q104.59-38 106.24-38L106.24-38Q109.09-38 109.09-34.55ZM138.79-17.25L138.79-17.25 138.79-3.1Q138.79-1.7 140.09-1.15L140.09-1.15Q139.04 0.45 137.44 0.45L137.44 0.45Q134.69 0.45 134.69-3.05L134.69-3.05 134.69-16.95Q134.69-22.2 130.09-22.2L130.09-22.2Q127.59-22.2 125.34-20.2 123.09-18.2 122.24-14.85L122.24-14.85 122.24-3.1Q122.24-1.65 123.49-1.15L123.49-1.15Q122.44 0.45 120.89 0.45L120.89 0.45Q118.09 0.45 118.09-3.05L118.09-3.05 118.09-34.45Q118.09-35.9 116.84-36.45L116.84-36.45Q117.69-38 119.44-38L119.44-38Q122.24-38 122.24-34.55L122.24-34.55 122.24-19.75Q123.54-22.45 125.94-24.15 128.34-25.85 131.56-25.85 134.79-25.85 136.79-23.68 138.79-21.5 138.79-17.25ZM150.01-36.5Q151.29-36.5 152.11-35.77 152.94-35.05 152.94-33.77 152.94-32.5 151.86-31.48 150.79-30.45 149.44-30.45 148.09-30.45 147.24-31.25 146.39-32.05 146.39-33.35 146.39-34.65 147.56-35.58 148.74-36.5 150.01-36.5ZM151.94-22.35L151.94-22.35 151.94-3.1Q151.94-1.65 153.19-1.15L153.19-1.15Q152.14 0.45 150.59 0.45L150.59 0.45Q147.79 0.45 147.79-3.05L147.79-3.05 147.79-22.25Q147.79-23.7 146.54-24.25L146.54-24.25Q147.49-25.85 149.14-25.85L149.14-25.85Q151.94-25.85 151.94-22.35ZM165.19-34.55L165.19-34.55 165.19-3.1Q165.19-1.65 166.44-1.15L166.44-1.15Q165.38 0.45 163.84 0.45L163.84 0.45Q161.03 0.45 161.03-3.05L161.03-3.05 161.03-34.45Q161.03-35.9 159.78-36.45L159.78-36.45Q160.63-38 162.38-38L162.38-38Q165.19-38 165.19-34.55ZM178.48-34.55L178.48-34.55 178.48-3.1Q178.48-1.65 179.73-1.15L179.73-1.15Q178.68 0.45 177.13 0.45L177.13 0.45Q174.33 0.45 174.33-3.05L174.33-3.05 174.33-34.45Q174.33-35.9 173.08-36.45L173.08-36.45Q173.93-38 175.68-38L175.68-38Q178.48-38 178.48-34.55ZM226.88-30.25L226.88-30.25Q226.88-29 226.08-28.3 225.28-27.6 224.1-27.6 222.93-27.6 222.28-27.95L222.28-27.95Q222.33-28.3 222.33-28.6L222.33-28.6Q222.33-30.3 220.78-31.65 219.23-33 215.93-33L215.93-33Q211.33-33 207.9-29.08 204.48-25.15 204.48-18.05 204.48-10.95 207.58-7.18 210.68-3.4 216.23-3.4L216.23-3.4Q219.18-3.4 221.73-4.6 224.28-5.8 225.93-7.45L225.93-7.45Q226.28-7.4 226.6-6.98 226.93-6.55 226.93-5.85L226.93-5.85Q226.93-4 223.4-1.78 219.88 0.45 215.08 0.45L215.08 0.45Q208.43 0.45 204.15-4.35 199.88-9.15 199.88-17.45 199.88-25.75 204.73-31 209.58-36.25 216.78-36.25L216.78-36.25Q221.08-36.25 223.98-34.5 226.88-32.75 226.88-30.25ZM237.68-6.4L237.68-6.4Q237.68-2.8 241.6-2.8 245.53-2.8 248.08-6.25L248.08-6.25 248.08-12.2Q242.78-11.9 240.23-10.33 237.68-8.75 237.68-6.4ZM252.23-17.8L252.23-17.8 252.23-4.5Q252.23-1.85 254.68-1.5L254.68-1.5Q253.73 0.45 251.53 0.45L251.53 0.45Q248.38 0.45 248.08-3.6L248.08-3.6Q245.18 0.45 240.28 0.45L240.28 0.45Q237.18 0.45 235.18-1.25 233.18-2.95 233.18-5.95L233.18-5.95Q233.18-9.65 236.9-11.93 240.63-14.2 248.08-14.4L248.08-14.4 248.08-17.4Q248.08-20.5 246.98-21.98 245.88-23.45 243.5-23.45 241.13-23.45 239.93-22.48 238.73-21.5 238.73-20.28 238.73-19.05 239.43-18.3L239.43-18.3Q238.38-17.5 237.1-17.5 235.83-17.5 235.03-18.2 234.23-18.9 234.23-20.2L234.23-20.2Q234.23-22.55 236.93-24.2 239.63-25.85 243.58-25.85 247.53-25.85 249.88-23.73 252.23-21.6 252.23-17.8ZM272.07-2.95L272.07-2.95Q275.12-2.95 277.25-5.58 279.37-8.2 279.37-12.7 279.37-17.2 277.25-19.8 275.12-22.4 272.07-22.4L272.07-22.4Q267.77-22.4 265.57-18.3L265.57-18.3 265.57-6.4Q266.82-4.5 268.37-3.73 269.92-2.95 272.07-2.95ZM265.57-22.35L265.57-22.35 265.57-22.3Q268.17-25.85 272.7-25.85 277.22-25.85 280.45-22.43 283.67-19 283.67-12.75 283.67-6.5 280.3-3.05 276.92 0.4 272.55 0.4 268.17 0.4 265.57-2.5L265.57-2.5 265.57 8.85Q265.57 10.35 266.82 10.8L266.82 10.8Q265.77 12.4 264.22 12.4L264.22 12.4Q261.42 12.4 261.42 8.85L261.42 8.85 261.42-22.25Q261.42-23.7 260.17-24.25L260.17-24.25Q261.12-25.85 262.77-25.85L262.77-25.85Q265.57-25.85 265.57-22.35ZM292.7-36.5Q293.97-36.5 294.8-35.77 295.62-35.05 295.62-33.77 295.62-32.5 294.55-31.48 293.47-30.45 292.12-30.45 290.77-30.45 289.92-31.25 289.07-32.05 289.07-33.35 289.07-34.65 290.25-35.58 291.42-36.5 292.7-36.5ZM294.62-22.35L294.62-22.35 294.62-3.1Q294.62-1.65 295.87-1.15L295.87-1.15Q294.82 0.45 293.27 0.45L293.27 0.45Q290.47 0.45 290.47-3.05L290.47-3.05 290.47-22.25Q290.47-23.7 289.22-24.25L289.22-24.25Q290.17-25.85 291.82-25.85L291.82-25.85Q294.62-25.85 294.62-22.35ZM308.62-22.2L307.92-22.2 307.92-6.35Q307.92-4.5 308.64-3.7 309.37-2.9 311.02-2.9L311.02-2.9Q314.12-2.9 316.87-5.55L316.87-5.55Q317.72-5.1 317.72-4.1L317.72-4.1Q317.72-2.4 315.52-0.98 313.32 0.45 310.12 0.45L310.12 0.45Q303.72 0.45 303.72-6.2L303.72-6.2 303.72-22.2Q299.67-22.35 299.67-24.15L299.67-24.15Q299.67-25.1 300.27-25.6L300.27-25.6Q302.02-25.35 302.97-25.35L302.97-25.35 303.72-25.35 303.72-29.4Q303.72-30.8 302.47-31.4L302.47-31.4Q303.47-32.95 305.07-32.95L305.07-32.95Q307.92-32.95 307.92-29.45L307.92-29.45 307.92-25.35 316.32-25.35Q316.52-25 316.52-24.5L316.52-24.5Q316.52-22.2 308.62-22.2L308.62-22.2ZM326.22-6.4L326.22-6.4Q326.22-2.8 330.14-2.8 334.07-2.8 336.62-6.25L336.62-6.25 336.62-12.2Q331.32-11.9 328.77-10.33 326.22-8.75 326.22-6.4ZM340.77-17.8L340.77-17.8 340.77-4.5Q340.77-1.85 343.22-1.5L343.22-1.5Q342.27 0.45 340.07 0.45L340.07 0.45Q336.92 0.45 336.62-3.6L336.62-3.6Q333.72 0.45 328.82 0.45L328.82 0.45Q325.72 0.45 323.72-1.25 321.72-2.95 321.72-5.95L321.72-5.95Q321.72-9.65 325.44-11.93 329.17-14.2 336.62-14.4L336.62-14.4 336.62-17.4Q336.62-20.5 335.52-21.98 334.42-23.45 332.04-23.45 329.67-23.45 328.47-22.48 327.27-21.5 327.27-20.28 327.27-19.05 327.97-18.3L327.97-18.3Q326.92-17.5 325.64-17.5 324.37-17.5 323.57-18.2 322.77-18.9 322.77-20.2L322.77-20.2Q322.77-22.55 325.47-24.2 328.17-25.85 332.12-25.85 336.07-25.85 338.42-23.73 340.77-21.6 340.77-17.8ZM354.11-34.55L354.11-34.55 354.11-3.1Q354.11-1.65 355.36-1.15L355.36-1.15Q354.31 0.45 352.76 0.45L352.76 0.45Q349.96 0.45 349.96-3.05L349.96-3.05 349.96-34.45Q349.96-35.9 348.71-36.45L348.71-36.45Q349.56-38 351.31-38L351.31-38Q354.11-38 354.11-34.55Z" opacity="1" transform="matrix(1,0,0,1,0,0)" fill="#4790fc" class="wordmark-text-0" data-fill-palette-color="primary" id="text-0"></path></svg></g></svg></g></svg></g></svg></g><g transform="matrix(1,0,0,1,408.9063976327919,0)"><svg viewBox="0 0 112.76759327691022 78.36460092732186" height="78.36460092732186" width="112.76759327691022"><g><svg xmlns="http://www.w3.org/2000/svg" xmlns:xlink="http://www.w3.org/1999/xlink" version="1.1" x="0" y="0" viewBox="21.2901465096237 92.99999999999999 469.4098534903763 326.2028989995117" style="enable-background:new 0 0 512 512;" xml:space="preserve" height="78.36460092732186" width="112.76759327691022" class="icon-icon-0" data-fill-palette-color="accent" id="icon-0"><path d="M169.9 333c-2.5-2-6.1-1.6-8.1 0.9-18.4 23.2-29.5 49.6-32.8 78.7-0.4 3.1 1.9 6 5 6.4 0.2 0 0.4 0 0.7 0 2.9 0 5.3-2.2 5.7-5.1 3.1-26.9 13.4-51.4 30.4-72.9C172.8 338.6 172.4 335 169.9 333z" fill="#001f3f" data-fill-palette-color="accent"></path><path d="M389.5 293c3.5 1.7 59.4 27.9 95.5 27.9 3.2 0 5.7-2.6 5.7-5.7 0-3.2-2.6-5.7-5.7-5.7-33.8 0-90.1-26.5-90.6-26.8-0.1 0-0.1-0.1-0.2-0.1-17.4-7.5-37.8-13.6-60.8-18.1-13.6-2.7-27.3-4.5-41.1-5.4-0.2 0-0.3 0-0.5 0-11.3-0.8-22.6-1-33.9-0.6-0.1 0-0.2 0-0.4 0-1.5 0-3.1 0.6-4.2 1.8-2.2 2.3-2 5.9 0.3 8.1 14.5 13.5 32.6 37.7 38.1 76.6-6.8 2.6-14.7 5.5-23.1 8.2-26-16.1-52.3-28.3-78.1-36.2-27.5-8.4-56.1-9.7-82.7-3.8-46.1 10.3-67.2 37-76.8 57.6-10.4 22.3-9.7 42-9.7 42.9 0.1 3.1 2.7 5.5 5.7 5.5 0.1 0 0.1 0 0.2 0 3.2-0.1 5.6-2.8 5.5-5.9 0-0.7-1.7-71.2 77.5-88.9 24.7-5.5 51.3-4.3 76.8 3.5 7 2.2 14.1 4.6 21.2 7.4-16.5 27.5-19 57.4-18 78.4 0.1 3.1 2.7 5.5 5.7 5.5 0.1 0 0.2 0 0.3 0 3.2-0.2 5.6-2.8 5.4-6-1-19.7 1.4-47.9 17.3-73.3 17.6 7.7 35.2 17.4 52.8 28.9 71.9 47.3 143.3 50.3 146.3 50.4 3.1 0.1 5.8-2.4 5.9-5.5 0.1-3.2-2.4-5.8-5.5-5.9-0.7 0-69.2-2.9-137.5-46.7 21.3-7.5 38-14.7 38.1-14.8 17.9-7.5 35-12.7 51-15.6 17.3-3.1 35-1.4 51.2 4.9 34.1 13.3 59.2 37.7 59.6 38 1.1 1.1 2.6 1.6 4 1.6 1.5 0 3-0.6 4.1-1.7 2.2-2.3 2.2-5.9-0.1-8.1-1.1-1.1-27-26.3-63.5-40.5-18.2-7.1-38.1-9-57.4-5.5-16.8 3-34.8 8.5-53.5 16.3-0.1 0-4.6 2-11.9 4.9-5.2-32.7-18.7-55.7-31.9-70.9 6.2 0 12.4 0.3 18.6 0.6 14.3 11.9 26 26.8 34.8 44.4 1 2 3 3.2 5.1 3.2 0.9 0 1.7-0.2 2.6-0.6 2.8-1.4 4-4.9 2.6-7.7-7.1-14.2-15.9-26.7-26.3-37.6 7.7 0.9 15.4 2.1 23.1 3.7C353.2 280 372.9 285.8 389.5 293z" fill="#001f3f" data-fill-palette-color="accent"></path><path d="M131.1 297c1 1.9 3 3 5 3 0.9 0 1.9-0.2 2.7-0.7 17-9.2 37.3-16.6 60.2-21.9 11.2-2.6 22.8-4.6 34.3-5.9 3.1-0.4 5.4-3.2 5-6.3-0.4-3.1-3.2-5.4-6.3-5-11.9 1.4-23.9 3.4-35.5 6.1-24 5.5-45.2 13.2-63.1 23C130.6 290.7 129.6 294.2 131.1 297z" fill="#001f3f" data-fill-palette-color="accent"></path><path d="M102.4 228.1c-3.2 0-5.7 2.6-5.7 5.7v38.9 8.6 12.3c0 3.2 2.6 5.7 5.7 5.7 3.2 0 5.7-2.6 5.7-5.7v-12.3-8.6c0-5.8 3.1-11.2 8.2-14l1.4-0.8c8.6-4.9 14-14.1 14-24 0-3.2-2.6-5.7-5.7-5.7s-5.7 2.6-5.7 5.7c0 5.8-3.1 11.2-8.2 14l-1.4 0.8c-0.9 0.5-1.7 1-2.5 1.6v-16.5C108.1 230.7 105.5 228.1 102.4 228.1z" fill="#001f3f" data-fill-palette-color="accent"></path><path d="M29.4 184.6c0 18.5 15 33.5 33.5 33.5h11.2c3.2 0 5.7-2.6 5.7-5.7 0-3.2-2.6-5.7-5.7-5.7H62.9c-12.2 0-22-9.9-22-22 0-12 9.4-21.7 21.5-22 1.9 0 3.6-1 4.6-2.5 1-1.5 1.3-3.5 0.6-5.2-1.6-4.2-2.4-8.6-2.4-13.2 0-20.5 16.7-37.2 37.2-37.2 20.5 0 37.2 16.7 37.2 37.2 0 4.5-0.8 9-2.4 13.2-0.7 1.7-0.4 3.7 0.6 5.2 1 1.5 2.8 2.5 4.6 2.5 12 0.3 21.5 10 21.5 22 0 12.2-9.9 22-22 22h-40.9c-3.2 0-5.7 2.6-5.7 5.7 0 3.2 2.6 5.7 5.7 5.7h40.9c18.5 0 33.5-15 33.5-33.5 0-15.8-10.7-28.9-25.4-32.5 0.7-3.4 1.1-6.9 1.1-10.4 0-26.8-21.8-48.7-48.7-48.7-26.8 0-48.7 21.8-48.7 48.7 0 3.5 0.4 7 1.1 10.4C40.1 155.7 29.4 168.8 29.4 184.6z" fill="#001f3f" data-fill-palette-color="accent"></path><path d="M196.1 251.3c4.4-26.4 12.4-64 25.5-93.6 14.1-31.9 30.9-47.5 49.7-46.4 0.3 0 0.6 0 0.9 0 0.3-0.1 36-0.9 73.4 101 0.7 1.8 2.2 3.1 4 3.6 1.8 0.5 3.8 0 5.2-1.3 6.8-6.1 14.6-10.3 23.3-12.5 36.6-9.2 58.9 49 68.9 84.6 0.7 2.5 3 4.2 5.5 4.2 0.5 0 1-0.1 1.6-0.2 3-0.9 4.8-4 4-7.1-19.6-69.2-48.2-101.2-82.8-92.6-7.9 2-15.2 5.3-21.8 10-16.2-42.1-34.2-71.8-53.6-88.2-14.8-12.5-25.6-13-28.4-12.9-50.7-2.6-75.2 79.9-86.9 149.6-0.5 3.1 1.6 6.1 4.7 6.6C192.6 256.5 195.6 254.4 196.1 251.3z" fill="#001f3f" data-fill-palette-color="accent"></path></svg></g></svg></g></svg></g><defs></defs></svg><rect width="395.52" height="59.4140545606371" fill="none" stroke="none" visibility="hidden"></rect></g></svg></g></svg>